<svg xmlns="http://www.w3.org/2000/svg" width="168" height="24" viewBox="0 0 167.476 24">
<path fill="#000000" d="M2.0766,24c-1.2831,0 -2.2591,-1.1523 -2.0478,-2.418l3.3133,-19.8478c0.1671,-1.0008 1.0331,-1.7343 2.0478,-1.7343l5.8969,0l-3.7169,22.2657c-0.1671,1.0008 -1.0331,1.7343 -2.0478,1.7343z"></path>
<path fill="#000000" d="M22.3265,8.2501c0,4.5564 -3.6937,8.2501 -8.2501,8.2501c-0.9382,0 -2.0228,0 -2.7896,0l2.7896,-16.5002c4.5564,0 8.2501,3.6937 8.2501,8.2501z"></path>
<path fill="#000000" d="M46.3757,8.1231c0,1.0514 -0.2496,2.0383 -0.7489,2.9605c-0.4993,0.9223 -1.2776,1.6653 -2.335,2.2292c-1.0632,0.5639 -2.4025,0.8459 -4.0179,0.8459v0h-3.3042v7.56h-3.9474v-19.6841h7.2516c1.5214,0 2.8167,0.2643 3.8857,0.793c1.075,0.5228 1.8797,1.2453 2.4143,2.1675c0.5346,0.9223 0.8018,1.9649 0.8018,3.128zM39.0977,10.9691c1.0926,0 1.9032,-0.2467 2.4319,-0.7401c0.5228,-0.4993 0.7842,-1.2012 0.7842,-2.1059v0c0,-1.9149 -1.0721,-2.8724 -3.2161,-2.8724v0h-3.128v5.7184zM53.1162,8.5196c0.5051,-0.8282 1.166,-1.4774 1.9825,-1.9473c0.8223,-0.4699 1.7593,-0.7049 2.8108,-0.7049v0v4.15h-1.0485c-1.2395,0 -2.1734,0.2908 -2.8019,0.8723c-0.6285,0.5815 -0.9428,1.5948 -0.9428,3.0398v0v7.789h-3.9474v-15.6221h3.9474zM67.496,21.9654c-1.5038,0 -2.8577,-0.3319 -4.0619,-0.9957c-1.2042,-0.6696 -2.1499,-1.6153 -2.8372,-2.8372c-0.6814,-1.2218 -1.0221,-2.6316 -1.0221,-4.2293v0c0,-1.5977 0.3524,-3.0075 1.0573,-4.2293c0.7049,-1.2218 1.6682,-2.1646 2.8901,-2.8284c1.2218,-0.6696 2.5846,-1.0045 4.0884,-1.0045v0c1.5038,0 2.8665,0.3348 4.0884,1.0045c1.2218,0.6637 2.1852,1.6065 2.8901,2.8284c0.7049,1.2218 1.0573,2.6316 1.0573,4.2293v0c0,1.5977 -0.3642,3.0075 -1.0926,4.2293c-0.7225,1.2218 -1.6976,2.1675 -2.9253,2.8372c-1.2336,0.6637 -2.611,0.9957 -4.1324,0.9957zM67.496,18.5291c0.7108,0 1.3833,-0.1733 2.0178,-0.5199c0.6285,-0.3465 1.1307,-0.8694 1.5067,-1.5684c0.376,-0.6932 0.5639,-1.539 0.5639,-2.5376v0c0,-1.4862 -0.3906,-2.6286 -1.1719,-3.4275c-0.7813,-0.7989 -1.7358,-1.1983 -2.8636,-1.1983v0c-1.1278,0 -2.0706,0.3994 -2.8284,1.1983c-0.7637,0.7989 -1.1454,1.9414 -1.1454,3.4275v0c0,1.4862 0.3701,2.6286 1.1102,3.4275c0.746,0.7989 1.6829,1.1983 2.8108,1.1983zM81.1092,6.0965l3.9474,11.9831l3.9474,-11.9831h4.2029l-5.7801,15.6221h-4.7933l-5.7537,-15.6221zM109.9569,13.5684c0,0.5639 -0.0382,1.0721 -0.1145,1.5243v0h-11.4192c0.094,1.1278 0.4905,2.0089 1.1895,2.6433c0.6932,0.6403 1.5479,0.9604 2.564,0.9604v0c1.4626,0 2.5053,-0.6285 3.128,-1.8856v0h4.2558c-0.4523,1.5038 -1.3158,2.7403 -2.5905,3.7095c-1.2805,0.9633 -2.8519,1.445 -4.714,1.445v0c-1.5038,0 -2.8519,-0.3319 -4.0443,-0.9957c-1.1924,-0.6696 -2.1235,-1.6153 -2.7931,-2.8372c-0.6637,-1.2218 -0.9957,-2.6316 -0.9957,-4.2293v0c0,-1.6153 0.3289,-3.0339 0.9868,-4.2558c0.6579,-1.2218 1.5772,-2.1616 2.7579,-2.8196c1.1866,-0.6579 2.5493,-0.9868 4.0884,-0.9868v0c1.4862,0 2.8167,0.3201 3.9914,0.9604c1.1748,0.6403 2.0882,1.5479 2.7403,2.7226c0.6461,1.1748 0.9692,2.5229 0.9692,4.0443zM98.4495,12.4406h7.419c-0.0176,-1.0162 -0.3848,-1.8298 -1.1014,-2.4407c-0.7108,-0.6109 -1.5831,-0.9164 -2.6169,-0.9164v0c-0.9809,0 -1.8034,0.2967 -2.4671,0.8899c-0.6696,0.5933 -1.0809,1.4157 -1.2336,2.4671zM111.816,13.9032c0,-1.6153 0.3289,-3.0281 0.9868,-4.2382c0.6579,-1.2159 1.5713,-2.1558 2.7403,-2.8196c1.1631,-0.6696 2.4965,-1.0045 4.0003,-1.0045v0c1.9385,0 3.5421,0.4846 4.8109,1.4538c1.2688,0.9692 2.1176,2.3261 2.5464,4.0707v0h-4.2558c-0.2232,-0.6756 -0.6051,-1.2071 -1.1454,-1.5948c-0.5346,-0.3818 -1.1954,-0.5727 -1.9825,-0.5727v0c-1.1278,0 -2.0207,0.4082 -2.6786,1.2247c-0.6579,0.8165 -0.9868,1.9766 -0.9868,3.4804v0c0,1.4862 0.3289,2.6374 0.9868,3.454c0.6579,0.8165 1.5508,1.2247 2.6786,1.2247v0c1.5977,0 2.6404,-0.7137 3.128,-2.1411v0h4.2558c-0.4288,1.6917 -1.2835,3.0369 -2.564,4.0355c-1.2805,0.9928 -2.8783,1.4891 -4.7933,1.4891v0c-1.5038,0 -2.8372,-0.3319 -4.0003,-0.9957c-1.169,-0.6696 -2.0823,-1.6095 -2.7403,-2.8196c-0.6579,-1.2159 -0.9868,-2.6316 -0.9868,-4.247zM137.897,9.339h-3.498v7.5511c0,0.5287 0.1293,0.9105 0.3877,1.1454c0.2526,0.235 0.6785,0.3524 1.2776,0.3524v0h1.8327v3.3306h-2.4759c-3.3306,0 -4.9959,-1.6183 -4.9959,-4.8549v0v-7.5247h-1.8591v-3.2425h1.8591v-3.8681h3.9738v3.8681h3.498zM147.6862,21.9654c-1.5038,0 -2.8577,-0.3319 -4.0619,-0.9957c-1.2042,-0.6696 -2.1499,-1.6153 -2.8372,-2.8372c-0.6873,-1.2218 -1.0309,-2.6316 -1.0309,-4.2293v0c0,-1.5977 0.3524,-3.0075 1.0573,-4.2293c0.7049,-1.2218 1.6682,-2.1646 2.8901,-2.8284c1.2218,-0.6696 2.5846,-1.0045 4.0884,-1.0045v0c1.5038,0 2.8665,0.3348 4.0884,1.0045c1.2218,0.6637 2.1852,1.6065 2.8901,2.8284c0.7049,1.2218 1.0573,2.6316 1.0573,4.2293v0c0,1.5977 -0.3613,3.0075 -1.0838,4.2293c-0.7225,1.2218 -1.7005,2.1675 -2.9341,2.8372c-1.2277,0.6637 -2.6022,0.9957 -4.1236,0.9957zM147.6862,18.5291c0.7108,0 1.3804,-0.1733 2.0089,-0.5199c0.6344,-0.3465 1.1395,-0.8694 1.5155,-1.5684c0.376,-0.6932 0.5639,-1.539 0.5639,-2.5376v0c0,-1.4862 -0.3906,-2.6286 -1.1719,-3.4275c-0.7813,-0.7989 -1.7358,-1.1983 -2.8636,-1.1983v0c-1.1278,0 -2.0735,0.3994 -2.8372,1.1983c-0.7578,0.7989 -1.1366,1.9414 -1.1366,3.4275v0c0,1.4862 0.3701,2.6286 1.1102,3.4275c0.746,0.7989 1.6829,1.1983 2.8108,1.1983zM162.6827,8.5196c0.5051,-0.8282 1.169,-1.4774 1.9913,-1.9473c0.8165,-0.4699 1.7505,-0.7049 2.8019,-0.7049v0v4.15h-1.0397c-1.2453,0 -2.1823,0.2908 -2.8108,0.8723c-0.6285,0.5815 -0.9428,1.5948 -0.9428,3.0398v0v7.789h-3.9474v-15.6221h3.9474z"></path>
</svg>