<svg xmlns="http://www.w3.org/2000/svg" width="800" height="400" viewBox="0 0 800 400"><defs><clipPath id="clip-1"><path d="M0,400v-400h800v400z" fill="#f3f3f3" stroke="none" stroke-width="1" stroke-linejoin="miter"></path></clipPath></defs><g clip-path="url(#clip-1)" id="drawing" fill="none" fill-rule="nonzero" stroke="none" stroke-width="none" stroke-linecap="butt" stroke-linejoin="none" stroke-miterlimit="10" stroke-dasharray="" stroke-dashoffset="0" font-family="none" font-weight="none" font-size="none" text-anchor="none" style="mix-blend-mode: normal"><path d="M0,400v-400h800v400z" fill="#f3f3f3" stroke="none" stroke-width="1" stroke-linejoin="miter"></path><g stroke="#717171" stroke-linejoin="round"><path d="M330.5492,15.6186v142.9691l184.6793,107.6756l123.9901,-71.768l123.6405,71.768l123.5479,-71.768v-71.6672l-294.2913,-162.1117z" fill="#ffffff" stroke-width="3"></path><path d="M330.5492,15.6186l91.4776,-0.5827l93.2016,106.6268l123.9901,-71.0845l123.6405,143.917l123.5479,-71.6672l-216.7496,-250.5438h-93.2256z" fill="#e7e8e7" stroke-width="3"></path><path d="M767.3511,167.6793l86.6715,-50.2761l-63.3675,-73.2473l-86.6715,50.2761z" fill="#ffffff" stroke-width="3"></path><path d="M762.7665,122.7273l41.4841,23.5475" fill="none" stroke-width="1"></path><path d="M669.6574,-127.7158l-247.6305,142.7517" fill="none" stroke-width="1"></path><path d="M515.2285,121.6628v144.6005" fill="none" stroke-width="1"></path><path d="M639.2186,50.5782v143.917" fill="none" stroke-width="1"></path><path d="M762.859,194.4953v71.768" fill="none" stroke-width="1"></path><path d="M762.7665,59.5144v63.2129" fill="none" stroke-width="1"></path><path d="M762.7665,122.7273l-22.8307,13.2622" fill="none" stroke-width="1"></path><path d="M453.872,210.8006l-77.2811,-45.0581v-74.6217l77.2811,45.0581z" fill="#ffffff" stroke-width="3"></path><path d="M393.5817,155.9079l-16.9909,9.8347" fill="none" stroke-width="1"></path><path d="M453.872,191.0596l-60.2903,-35.1517v-54.4489" fill="none" stroke-width="1"></path></g><path d="" fill="#ffffff" stroke="#000000" stroke-width="2" stroke-linejoin="miter"></path><path d="" fill="none" stroke="#000000" stroke-width="2" stroke-linejoin="miter"></path><path d="" fill="none" stroke="#000000" stroke-width="2" stroke-linejoin="miter"></path><path d="" fill="none" stroke="#000000" stroke-width="2" stroke-linejoin="miter"></path><g stroke="#717171" stroke-linejoin="round"><path d="M21.8799,197.7611v142.9691l184.6793,107.6756l123.9901,-71.768l123.6405,71.768l123.5479,-71.768v-71.6672l-294.2913,-162.1118z" fill="#ffffff" stroke-width="3"></path><path d="M21.8799,197.7611l91.4776,-0.5827l93.2016,106.6268l123.9901,-71.0845l123.6405,143.917l123.5479,-71.6672l-216.7495,-250.5438h-93.2256z" fill="#e7e8e7" stroke-width="3"></path><path d="M458.6818,349.8217l86.6715,-50.2761l-63.3675,-73.2473l-86.6715,50.2761z" fill="#ffffff" stroke-width="3"></path><path d="M454.0971,304.8697l41.4841,23.5475" fill="none" stroke-width="1"></path><path d="M360.988,54.4267l-247.6305,142.7517" fill="none" stroke-width="1"></path><path d="M206.5591,303.8052v144.6005" fill="none" stroke-width="1"></path><path d="M330.5492,232.7207v143.917" fill="none" stroke-width="1"></path><path d="M454.1897,376.6377v71.768" fill="none" stroke-width="1"></path><path d="M454.0971,241.6569v63.2129" fill="none" stroke-width="1"></path><path d="M454.0971,304.8697l-22.8307,13.2622" fill="none" stroke-width="1"></path><path d="M145.2026,392.9431l-77.2811,-45.0581v-74.6217l77.2811,45.0581z" fill="#ffffff" stroke-width="3"></path><path d="M84.9123,338.0504l-16.9909,9.8347" fill="none" stroke-width="1"></path><path d="M145.2026,373.2021l-60.2903,-35.1517v-54.4489" fill="none" stroke-width="1"></path></g><path d="" fill="none" stroke="#000000" stroke-width="2" stroke-linejoin="miter"></path><path d="M173.3112,162.6169" fill="none" stroke="#000000" stroke-width="2" stroke-linejoin="miter"></path></g></svg>