<svg width="16" height="16" viewBox="0 0 16 16" xmlns="http://www.w3.org/2000/svg" xmlns:xlink="http://www.w3.org/1999/xlink"><path d="M3,16c-1.6569,0 -3,-1.3431 -3,-3v-10c0,-1.6569 1.3431,-3 3,-3h10c1.6569,0 3,1.3431 3,3v10c0,1.6569 -1.3431,3 -3,3z" fill="#ffffff"></path><path d="M3.5231,13.9123c-0.6322,0 -1.113,-0.5677 -1.0089,-1.1913l1.6324,-9.7787c0.0823,-0.4931 0.509,-0.8545 1.0089,-0.8545h2.9053l-1.8313,10.97c-0.0823,0.4931 -0.509,0.8545 -1.0089,0.8545zM13.5,6.1525c0,2.2449 -1.8198,4.0647 -4.0647,4.0647c-0.4622,0 -0.9966,0 -1.3744,0l1.3744,-8.1294c2.2449,0 4.0647,1.8198 4.0647,4.0647z" fill="#000000"></path></svg>