<svg xmlns="http://www.w3.org/2000/svg" width="800" height="400" viewBox="0 0 800 400"><defs><clipPath id="clip-1"><path d="M0,400v-400h800v400z" fill="#def600" stroke="none" stroke-width="1" stroke-dasharray=""></path></clipPath></defs><g clip-path="url(#clip-1)" id="illustration" fill="none" fill-rule="nonzero" stroke="none" stroke-width="none" stroke-linecap="butt" stroke-linejoin="miter" stroke-miterlimit="10" stroke-dasharray="none" stroke-dashoffset="0" font-family="none" font-weight="none" font-size="none" text-anchor="none" style="mix-blend-mode: normal"><path d="M0,400v-400h800v400z" fill="#def600" stroke="none" stroke-width="1" stroke-dasharray=""></path><path d="M468.4859,381.8935c102.1808,-21.814 221.4882,-131.041 123.5572,-283.6612" fill="none" stroke="#556300" stroke-width="2" stroke-dasharray="6,2"></path><path d="M617.7957,122.9168c0,2.8109 2.2787,5.0897 5.0897,5.0897c2.811,0 5.0897,-2.2787 5.0897,-5.0897c0,-2.8109 -2.2787,-5.0897 -5.0897,-5.0897c-2.811,0 -5.0897,2.2787 -5.0897,5.0897z" fill="#2f3700" stroke="none" stroke-width="1" stroke-dasharray=""></path><path d="M280.8544,290.1767c82.4379,7.1327 296.1743,-6.6495 311.1887,-191.9444" fill="none" stroke="#556300" stroke-width="2" stroke-dasharray="6,2"></path><path d="M150.7813,35.1639c64.0089,73.7869 274.0607,150.3392 441.2618,63.0684" fill="none" stroke="#556300" stroke-width="2" stroke-dasharray="6,2"></path><path d="M668.3463,343.984c65.5054,-78.1944 56.1697,-235.0331 -76.3031,-245.7516" fill="none" stroke="#556300" stroke-width="2" stroke-dasharray="6,2"></path><path d="M774.2517,140.9852c-49.0748,-109.2838 -164.564,-105.8213 -182.2085,-42.7528" fill="none" stroke="#556300" stroke-width="2" stroke-dasharray="6,2"></path><path d="M628.2813,-5.3171c-36.2382,33.9815 -46.6006,67.5898 -36.2382,104.2258" fill="none" stroke="#556300" stroke-width="2" stroke-dasharray="6,2"></path><path d="M592.0431,98.9087c-24.395,-15.6728 -35.6065,-40.6419 -33.6344,-74.9073" fill="none" stroke="#556300" stroke-width="2" stroke-dasharray="6,2"></path><path d="M149.2458,-0.5064c0,244.3019 211.7491,392.4974 386.8114,387.8293c130.9453,-3.4917 238.1944,-110.9194 238.1944,-246.3378c0,-60.0576 -52.7028,-146.5812 -136.4019,-146.5812c-71.3201,0 -101.7925,44.7887 -101.7925,87.5415c0,42.7528 57.7676,78.579 86.8281,40.9713c17.3047,-22.3943 -16.2161,-44.2796 -30.8422,-24.6845" fill="none" stroke="#2f3700" stroke-width="3" stroke-dasharray=""></path><path d="M530.9676,387.323c0,2.811 2.2787,5.0897 5.0897,5.0897c2.811,0 5.0897,-2.2787 5.0897,-5.0897c0,-2.811 -2.2787,-5.0897 -5.0897,-5.0897c-2.811,0 -5.0897,2.2787 -5.0897,5.0897z" fill="#2f3700" stroke="none" stroke-width="1" stroke-dasharray=""></path><path d="M530.9676,84.9993c0,2.8109 2.2787,5.0897 5.0897,5.0897c2.811,0 5.0897,-2.2787 5.0897,-5.0897c0,-2.8109 -2.2787,-5.0897 -5.0897,-5.0897c-2.811,0 -5.0897,2.2787 -5.0897,5.0897z" fill="#2f3700" stroke="none" stroke-width="1" stroke-dasharray=""></path><path d="M587.3752,97.7235c0,2.8109 2.2787,5.0897 5.0897,5.0897c2.811,0 5.0897,-2.2787 5.0897,-5.0897c0,-2.8109 -2.2787,-5.0897 -5.0897,-5.0897c-2.811,0 -5.0897,2.2787 -5.0897,5.0897z" fill="#2f3700" stroke="none" stroke-width="1" stroke-dasharray=""></path><path d="" fill="#ffffff" stroke="#000000" stroke-width="1" stroke-dasharray=""></path><path d="M470.8876,544.2577c-194.0501,-144.2901 -351.0126,-291.0432 -470.8876,-440.2594" fill="none" stroke="#2f3700" stroke-width="3" stroke-dasharray=""></path><path d="M338.1923,544.2577c-72.2945,-141.8175 -185.0253,-250.9808 -338.1923,-327.49" fill="none" stroke="#556300" stroke-width="2" stroke-dasharray="6,2"></path><path d="M281.1773,544.2577c-48.8192,-159.9118 -142.5449,-242.4409 -281.1773,-247.5873" fill="none" stroke="#556300" stroke-width="1" stroke-dasharray="12,2"></path><path d="M251.652,544.2577c-31.4217,-144.8399 -115.3057,-218.4255 -251.652,-220.7568" fill="none" stroke="#2f3700" stroke-width="2" stroke-dasharray=""></path><path d="M192.2576,386.2254c0,-3.4171 2.7701,-6.1872 6.1872,-6.1872c3.4171,0 6.1872,2.7701 6.1872,6.1872c0,3.4171 -2.7701,6.1872 -6.1872,6.1872c-3.4171,0 -6.1872,-2.7701 -6.1872,-6.1872z" fill="#2f3700" stroke="none" stroke-width="1" stroke-dasharray=""></path><path d="M164.2443,290.4756c0,-3.4171 2.7701,-6.1872 6.1872,-6.1872c3.4171,0 6.1872,2.7701 6.1872,6.1872c0,3.4171 -2.7701,6.1872 -6.1872,6.1872c-3.4171,0 -6.1872,-2.7701 -6.1872,-6.1872z" fill="#2f3700" stroke="none" stroke-width="1" stroke-dasharray=""></path><path d="M274.6672,290.4756c0,-3.4171 2.7701,-6.1872 6.1872,-6.1872c3.4171,0 6.1872,2.7701 6.1872,6.1872c0,3.4171 -2.7701,6.1872 -6.1872,6.1872c-3.4171,0 -6.1872,-2.7701 -6.1872,-6.1872z" fill="#2f3700" stroke="none" stroke-width="1" stroke-dasharray=""></path><path d="M767.8896,142.0031c0,3.5137 2.8484,6.3621 6.3621,6.3621c3.5137,0 6.3621,-2.8484 6.3621,-6.3621c0,-3.5137 -2.8484,-6.3621 -6.3621,-6.3621c-3.5137,0 -6.3621,2.8484 -6.3621,6.3621z" fill="#2f3700" stroke="none" stroke-width="1" stroke-dasharray=""></path></g></svg>