<svg xmlns="http://www.w3.org/2000/svg" width="800" height="400" viewBox="0 0 800 400"><defs><clipPath id="clip-1"><path d="M0,400v-400h800v400z" fill="#7769c6" stroke="none" stroke-dasharray=""></path></clipPath><linearGradient x1="216.5151" y1="202.996" x2="201.7147" y2="203.2847" gradientUnits="userSpaceOnUse" id="color-1"><stop offset="0" stop-color="#ffffff"></stop><stop offset="1" stop-color="#dad5f2"></stop></linearGradient><linearGradient x1="663.0351" y1="202.996" x2="648.2347" y2="203.2847" gradientUnits="userSpaceOnUse" id="color-2"><stop offset="0" stop-color="#ffffff"></stop><stop offset="1" stop-color="#dad5f2"></stop></linearGradient><linearGradient x1="354.6873" y1="236.1771" x2="337.6747" y2="246.0013" gradientUnits="userSpaceOnUse" id="color-3"><stop offset="0" stop-color="#ffffff"></stop><stop offset="1" stop-color="#dad5f2"></stop></linearGradient><linearGradient x1="515.4547" y1="209.6502" x2="515.4547" y2="163.2012" gradientUnits="userSpaceOnUse" id="color-4"><stop offset="0" stop-color="#ffffff"></stop><stop offset="0.3683" stop-color="#dbd7f3"></stop><stop offset="0.6125" stop-color="#dad5f2"></stop><stop offset="1" stop-color="#ffffff"></stop></linearGradient><linearGradient x1="145.6747" y1="202.3212" x2="125.0347" y2="202.3212" gradientUnits="userSpaceOnUse" id="color-5"><stop offset="0" stop-color="#ffffff"></stop><stop offset="1" stop-color="#dad5f2"></stop></linearGradient></defs><g clip-path="url(#clip-1)" id="print" fill="none" fill-rule="nonzero" stroke="none" stroke-width="1" stroke-linecap="butt" stroke-linejoin="miter" stroke-miterlimit="10" stroke-dasharray="none" stroke-dashoffset="0" font-family="none" font-weight="none" font-size="none" text-anchor="none" style="mix-blend-mode: normal"><path d="M0,400v-400h800v400z" fill="#7769c6" stroke="none" stroke-dasharray=""></path><path d="M-1.0548,246.0013h802.1095" fill="#ffffff" stroke="#ff7878" stroke-dasharray=""></path><path d="M-1.0548,180.8673v-21.2661h802.1095v21.2661z" fill="none" stroke="#ff7878" stroke-dasharray="4,2"></path><path d="M399.0547,247.8013c-6.56,0 -12.32,-1.42 -17.28,-4.26c-4.96,-2.84 -8.83,-6.78 -11.61,-11.82c-2.78,-5.04 -4.17,-10.84 -4.17,-17.4c0,-7.08 1.36,-13.23 4.08,-18.45c2.72,-5.22 6.5,-9.27 11.34,-12.15c4.84,-2.88 10.44,-4.32 16.8,-4.32c6.72,0 12.43,1.57 17.13,4.71c4.7,3.14 8.19,7.57 10.47,13.29c2.28,5.72 3.14,12.46 2.58,20.22h-46.9009c0.4855,4.6528 1.8592,8.3928 4.1209,11.22c2.88,3.6 7.08,5.4 12.6,5.4c3.56,0 6.63,-0.79 9.21,-2.37c2.58,-1.58 4.57,-3.87 5.97,-6.87l14.28,4.32c-2.48,5.84 -6.31,10.38 -11.49,13.62c-5.18,3.24 -10.89,4.86 -17.13,4.86zM410.3347,196.9212c-2.44,-3.24 -6.28,-4.86 -11.52,-4.86c-5.92,0 -10.32,1.83 -13.2,5.49c-1.8508,2.3521 -3.1069,5.4021 -3.7683,9.15h31.8714c-0.5223,-4.2186 -1.65,-7.4786 -3.3831,-9.78z" fill="#ffffff" stroke="none" stroke-dasharray=""></path><path d="M428.5603,406.127v-412.2539h9.6744v412.2539z" fill="none" stroke="#ff7878" stroke-dasharray=""></path><path d="M620.5147,405.1187v-410.2373h13.2v410.2373z" fill-opacity="0.4" fill="#ffaadd" stroke="#ff7878" stroke-dasharray=""></path><path d="M299.6347,403.2421v-406.4843h14.46v406.4843z" fill="none" stroke="#ff7878" stroke-dasharray=""></path><path d="M110.5747,0v400" fill="#ffffff" stroke="#ff7878" stroke-dasharray=""></path><path d="M187.1947,0v400" fill="#ffffff" stroke="#ff7878" stroke-dasharray=""></path><path d="M201.7147,0v400" fill="#ffffff" stroke="#ff7878" stroke-dasharray=""></path><path d="M230.2747,0v400" fill="#ffffff" stroke="#ff7878" stroke-dasharray=""></path><path d="M361.1947,0v400" fill="#ffffff" stroke="#ff7878" stroke-dasharray=""></path><path d="M498.8347,0v400" fill="#ffffff" stroke="#ff7878" stroke-dasharray=""></path><path d="M515.4547,0v400" fill="#ffffff" stroke="#ff7878" stroke-dasharray=""></path><path d="M529.8547,0v400" fill="#ffffff" stroke="#ff7878" stroke-dasharray=""></path><path d="M555.9547,0v400" fill="#ffffff" stroke="#ff7878" stroke-dasharray=""></path><path d="M571.2547,0v400" fill="#ffffff" stroke="#ff7878" stroke-dasharray=""></path><path d="M648.2347,0v400" fill="#ffffff" stroke="#ff7878" stroke-dasharray=""></path><path d="M670.1947,0v400" fill="#ffffff" stroke="#ff7878" stroke-dasharray=""></path><path d="M201.7147,246.0013h-14.52v-64.8h12.78v15.78l-1.56,-2.04c0.8,-2.16 1.87,-4.13 3.21,-5.91c1.34,-1.78 2.95,-3.25 4.83,-4.41v0c1.6,-1.08 3.37,-1.93 5.31,-2.55c1.94,-0.62 3.93,-1 5.97,-1.14c2.04,-0.14 4.02,-0.05 5.94,0.27v0v13.5c-1.92,-0.56 -4.13,-0.74 -6.63,-0.54c-2.5,0.2 -4.75,0.9 -6.75,2.1v0c-2,1.08 -3.63,2.46 -4.89,4.14c-1.26,1.68 -2.19,3.59 -2.79,5.73c-0.6,2.14 -0.9,4.45 -0.9,6.93v0z" fill="url(#color-1)" stroke="none" stroke-dasharray=""></path><path d="M648.2347,246.0013h-14.52v-64.8h12.78v15.78l-1.56,-2.04c0.8,-2.16 1.87,-4.13 3.21,-5.91c1.34,-1.78 2.95,-3.25 4.83,-4.41v0c1.6,-1.08 3.37,-1.93 5.31,-2.55c1.94,-0.62 3.93,-1 5.97,-1.14c2.04,-0.14 4.02,-0.05 5.94,0.27v0v13.5c-1.92,-0.56 -4.13,-0.74 -6.63,-0.54c-2.5,0.2 -4.75,0.9 -6.75,2.1v0c-2,1.08 -3.63,2.46 -4.89,4.14c-1.26,1.68 -2.19,3.59 -2.79,5.73c-0.6,2.14 -0.9,4.45 -0.9,6.93v0z" fill="url(#color-2)" stroke="none" stroke-dasharray=""></path><path d="M262.4947,247.8013c-6.48,0 -12.14,-1.46 -16.98,-4.38c-4.84,-2.92 -8.59,-6.95 -11.25,-12.09c-2.66,-5.14 -3.99,-11.05 -3.99,-17.73c0,-6.8 1.36,-12.76 4.08,-17.88c2.72,-5.12 6.5,-9.12 11.34,-12c4.84,-2.88 10.44,-4.32 16.8,-4.32c6.52,0 12.2,1.46 17.04,4.38c4.84,2.92 8.6,6.95 11.28,12.09c2.68,5.14 4.02,11.05 4.02,17.73c0,6.72 -1.35,12.65 -4.05,17.79c-2.7,5.14 -6.47,9.16 -11.31,12.06c-4.84,2.9 -10.5,4.35 -16.98,4.35zM262.4947,234.2413c5.76,0 10.04,-1.92 12.84,-5.76c2.8,-3.84 4.2,-8.8 4.2,-14.88c0,-6.28 -1.42,-11.29 -4.26,-15.03c-2.84,-3.74 -7.1,-5.61 -12.78,-5.61c-3.88,0 -7.07,0.87 -9.57,2.61c-2.5,1.74 -4.35,4.16 -5.55,7.26c-1.2,3.1 -1.8,6.69 -1.8,10.77c0,6.28 1.43,11.29 4.29,15.03c2.86,3.74 7.07,5.61 12.63,5.61z" fill="#ffffff" stroke="none" stroke-dasharray=""></path><path d="M337.6747,246.0013h-14.52l-23.52,-64.8h14.46l16.32,46.98l16.26,-46.98h14.52z" fill="url(#color-3)" stroke="none" stroke-dasharray=""></path><path d="M337.6747,246.0013h-14.52l-23.52,-64.8h14.46z" fill="#ffffff" stroke="none" stroke-dasharray=""></path><path d="M469.9747,247.8013v0c-6.68,0 -12.38,-1.49 -17.1,-4.47c-4.72,-2.98 -8.33,-7.05 -10.83,-12.21c-2.5,-5.16 -3.77,-11 -3.81,-17.52v0c0.04,-6.64 1.35,-12.53 3.93,-17.67c2.58,-5.14 6.25,-9.18 11.01,-12.12c4.76,-2.94 10.42,-4.41 16.98,-4.41v0c7.36,0 13.59,1.85 18.69,5.55c5.1,3.7 8.43,8.75 9.99,15.15v0l-14.4,3.9c-1.12,-3.48 -2.98,-6.19 -5.58,-8.13c-2.6,-1.94 -5.56,-2.91 -8.88,-2.91v0c-3.76,0 -6.86,0.89 -9.3,2.67c-2.44,1.78 -4.24,4.23 -5.4,7.35c-1.16,3.12 -1.74,6.66 -1.74,10.62v0c0,6.16 1.38,11.14 4.14,14.94c2.76,3.8 6.86,5.7 12.3,5.7v0c3.84,0 6.87,-0.88 9.09,-2.64c2.22,-1.76 3.89,-4.3 5.01,-7.62v0l14.76,3.3c-2,6.6 -5.5,11.67 -10.5,15.21c-5,3.54 -11.12,5.31 -18.36,5.31z" fill="#ffffff" stroke="none" stroke-dasharray=""></path><path d="M548.8747,233.8813v12.12c-4.28,0.8 -8.47,1.15 -12.57,1.05c-4.1,-0.1 -7.77,-0.86 -11.01,-2.28c-3.24,-1.42 -5.7,-3.67 -7.38,-6.75v0c-1.48,-2.8 -2.26,-5.66 -2.34,-8.58c-0.08,-2.92 -0.12,-6.22 -0.12,-9.9v0v-56.34h14.4v55.5c0,2.6 0.03,4.88 0.09,6.84c0.06,1.96 0.47,3.56 1.23,4.8v0c1.44,2.4 3.74,3.74 6.9,4.02c3.16,0.28 6.76,0.12 10.8,-0.48z" fill="url(#color-4)" stroke="none" stroke-dasharray=""></path><path d="M548.8747,192.5413h-45.18v-11.34h45.18z" fill="#ffffff" stroke="none" stroke-dasharray=""></path><path d="M588.1747,247.8013c-6.48,0 -12.14,-1.46 -16.98,-4.38c-4.84,-2.92 -8.59,-6.95 -11.25,-12.09c-2.66,-5.14 -3.99,-11.05 -3.99,-17.73c0,-6.8 1.36,-12.76 4.08,-17.88c2.72,-5.12 6.5,-9.12 11.34,-12c4.84,-2.88 10.44,-4.32 16.8,-4.32c6.52,0 12.2,1.46 17.04,4.38c4.84,2.92 8.6,6.95 11.28,12.09c2.68,5.14 4.02,11.05 4.02,17.73c0,6.72 -1.35,12.65 -4.05,17.79c-2.7,5.14 -6.47,9.16 -11.31,12.06c-4.84,2.9 -10.5,4.35 -16.98,4.35zM588.1747,234.2413c5.76,0 10.04,-1.92 12.84,-5.76c2.8,-3.84 4.2,-8.8 4.2,-14.88c0,-6.28 -1.42,-11.29 -4.26,-15.03c-2.84,-3.74 -7.1,-5.61 -12.78,-5.61c-3.88,0 -7.07,0.87 -9.57,2.61c-2.5,1.74 -4.35,4.16 -5.55,7.26c-1.2,3.1 -1.8,6.69 -1.8,10.77c0,6.28 1.43,11.29 4.29,15.03c2.86,3.74 7.07,5.61 12.63,5.61z" fill="#ffffff" stroke="none" stroke-dasharray=""></path><path d="" fill="#ffffff" stroke="#000000" stroke-dasharray=""></path><path d="M125.0347,246.0012h-14.46v-86.4h35.7c0.84,0 1.92,0.03 3.24,0.09c1.32,0.06 2.54,0.19 3.66,0.39c5,0.76 9.13,2.42 12.39,4.98c3.26,2.56 5.68,5.79 7.26,9.69c1.58,3.9 2.37,8.23 2.37,12.99c0,4.72 -0.8,9.03 -2.4,12.93c-1.6,3.9 -4.03,7.13 -7.29,9.69c-3.26,2.56 -7.37,4.22 -12.33,4.98c-1.12,0.16 -2.35,0.28 -3.69,0.36c-1.34,0.08 -2.41,0.12 -3.21,0.12h-21.24zM125.0347,173.1613v29.16h20.64c0.8,0 1.7,-0.04 2.7,-0.12c1,-0.08 1.92,-0.24 2.76,-0.48c2.4,-0.6 4.29,-1.66 5.67,-3.18c1.38,-1.52 2.36,-3.24 2.94,-5.16c0.58,-1.92 0.87,-3.8 0.87,-5.64c0,-1.84 -0.29,-3.73 -0.87,-5.67c-0.58,-1.94 -1.56,-3.67 -2.94,-5.19c-1.38,-1.52 -3.27,-2.58 -5.67,-3.18c-0.84,-0.24 -1.76,-0.39 -2.76,-0.45c-1,-0.06 -1.9,-0.09 -2.7,-0.09z" fill="url(#color-5)" stroke="none" stroke-dasharray=""></path><path d="M110.5747,246.0013v-86.4h14.46v86.4z" fill="#ffffff" stroke="none" stroke-dasharray=""></path><path d="M187.1947,246.0013v-65.1339h14.52v65.1339z" fill="#ffffff" stroke="none" stroke-dasharray=""></path><path d="M633.7147,246.0013v-65.1339h14.52v65.1339z" fill="#ffffff" stroke="none" stroke-dasharray=""></path><path d="M-115.1581,213.6013c0,-150.1437 121.7155,-271.8592 271.8592,-271.8592c150.1437,0 271.8592,121.7155 271.8592,271.8592c0,150.1437 -121.7155,271.8592 -271.8592,271.8592c-150.1437,0 -271.8592,-121.7155 -271.8592,-271.8592z" fill="none" stroke="#ff7878" stroke-dasharray="4,2"></path></g></svg>